/* XPM */
static char *_66d48ef08d8449b85599cee266deeafpxXZr1CESu9eZGNK[] = {
/* columns rows colors chars-per-pixel */
"64 64 3 1 ",
"  c black",
". c #B5E61D",
"X c white",
/* pixels */
"XXXXXXXXXXXXXXXXXXXXXXXXXXXXXXXXXXXXXXXXXXXXXXXXXXXXXXXXXXXXXXXX",
"XXXXXXXXXXXXXXXXXXXXXXXXXXXXXXXXXXXXXXXXXXXXXXXXXXXXXXXXXXXXXXXX",
"XXXXXXXXXXXXXXXXXXXXXXXXXXXXXXXXXXXXXXXXXXXXXXXXXXXXXXXXXXXXXXXX",
"XXXXXXXXXXXXXXXXXXXXXXXXXXXXXXXXXXXXXXXXXXXXXXXXXXXXXXXXXXXXXXXX",
"XXXXXXXXXXXXXXXXXXXXXXXXXXXXXXXXXXXXXXXXXXXXXXXXXXXXXXXXXXXXXXXX",
"XXXXXXXXXXXXXXXXXXXXXXXXXXXXXXXXXXXXXXXXXXXXXXXXXXXXXXXXXXXXXXXX",
"XXXXXXXXXXXXXXXXXXXXXXXXXXX          XXXXXXXXXXXXXXXXXXXXXXXXXXX",
"XXXXXXXXXXXXXXXXXXXXXXXX                XXXXXXXXXXXXXXXXXXXXXXXX",
"XXXXXXXXXXXXXXXXXXXXX                      XXXXXXXXXXXXXXXXXXXXX",
"XXXXXXXXXXXXXXXXXXXX                        XXXXXXXXXXXXXXXXXXXX",
"XXXXXXXXXXXXXXXXXX                            XXXXXXXXXXXXXXXXXX",
"XXXXXXXXXXXXXXXXX           ........           XXXXXXXXXXXXXXXXX",
"XXXXXXXXXXXXXXX          ..............          XXXXXXXXXXXXXXX",
"XXXXXXXXXXXXXX         ..................         XXXXXXXXXXXXXX",
"XXXXXXXXXXXXX        ......................        XXXXXXXXXXXXX",
"XXXXXXXXXXXXX       ........................       XXXXXXXXXXXXX",
"XXXXXXXXXXXX      ............................      XXXXXXXXXXXX",
"XXXXXXXXXXX      ..............................      XXXXXXXXXXX",
"XXXXXXXXXXX      ...............................      XXXXXXXXXX",
"XXXXXXXXXX      ................................      XXXXXXXXXX",
"XXXXXXXXX      ..................................      XXXXXXXXX",
"XXXXXXXXX      ..................................      XXXXXXXXX",
"XXXXXXXXX     ....................................     XXXXXXXXX",
"XXXXXXXX      .....................................     XXXXXXXX",
"XXXXXXXX     ......................................     XXXXXXXX",
"XXXXXXXX     ......................................     XXXXXXXX",
"XXXXXXX      ......................................      XXXXXXX",
"XXXXXXX     ........................................     XXXXXXX",
"XXXXXXX     ........................................     XXXXXXX",
"XXXXXXX     ........................................     XXXXXXX",
"XXXXXXX     ........................................     XXXXXXX",
"XXXXXXX     ........................................     XXXXXXX",
"XXXXXXX     ........................................     XXXXXXX",
"XXXXXXX     ........................................     XXXXXXX",
"XXXXXXX     ........................................     XXXXXXX",
"XXXXXXX      ......................................      XXXXXXX",
"XXXXXXXX     ......................................     XXXXXXXX",
"XXXXXXXX     ......................................     XXXXXXXX",
"XXXXXXXX      .....................................     XXXXXXXX",
"XXXXXXXXX     ....................................      XXXXXXXX",
"XXXXXXXXX      ...................................     XXXXXXXXX",
"XXXXXXXXX      ..................................      XXXXXXXXX",
"XXXXXXXXXX      ................................      XXXXXXXXXX",
"XXXXXXXXXXX      ...............................      XXXXXXXXXX",
"XXXXXXXXXXX      ..............................      XXXXXXXXXXX",
"XXXXXXXXXXXX      ............................      XXXXXXXXXXXX",
"XXXXXXXXXXXXX      ..........................       XXXXXXXXXXXX",
"XXXXXXXXXXXXX        ......................        XXXXXXXXXXXXX",
"XXXXXXXXXXXXXX         ...................        XXXXXXXXXXXXXX",
"XXXXXXXXXXXXXXX         ................         XXXXXXXXXXXXXXX",
"XXXXXXXXXXXXXXXXX           ........            XXXXXXXXXXXXXXXX",
"XXXXXXXXXXXXXXXXXX                            XXXXXXXXXXXXXXXXXX",
"XXXXXXXXXXXXXXXXXXX                          XXXXXXXXXXXXXXXXXXX",
"XXXXXXXXXXXXXXXXXXXXX                      XXXXXXXXXXXXXXXXXXXXX",
"XXXXXXXXXXXXXXXXXXXXXXXX                 XXXXXXXXXXXXXXXXXXXXXXX",
"XXXXXXXXXXXXXXXXXXXXXXXXXXX          XXXXXXXXXXXXXXXXXXXXXXXXXXX",
"XXXXXXXXXXXXXXXXXXXXXXXXXXXXXXXXXXXXXXXXXXXXXXXXXXXXXXXXXXXXXXXX",
"XXXXXXXXXXXXXXXXXXXXXXXXXXXXXXXXXXXXXXXXXXXXXXXXXXXXXXXXXXXXXXXX",
"XXXXXXXXXXXXXXXXXXXXXXXXXXXXXXXXXXXXXXXXXXXXXXXXXXXXXXXXXXXXXXXX",
"XXXXXXXXXXXXXXXXXXXXXXXXXXXXXXXXXXXXXXXXXXXXXXXXXXXXXXXXXXXXXXXX",
"XXXXXXXXXXXXXXXXXXXXXXXXXXXXXXXXXXXXXXXXXXXXXXXXXXXXXXXXXXXXXXXX",
"XXXXXXXXXXXXXXXXXXXXXXXXXXXXXXXXXXXXXXXXXXXXXXXXXXXXXXXXXXXXXXXX",
"XXXXXXXXXXXXXXXXXXXXXXXXXXXXXXXXXXXXXXXXXXXXXXXXXXXXXXXXXXXXXXXX",
"XXXXXXXXXXXXXXXXXXXXXXXXXXXXXXXXXXXXXXXXXXXXXXXXXXXXXXXXXXXXXXXX"
};
